<svg width="503" height="310" viewBox="0 0 503 310" fill="none" xmlns="http://www.w3.org/2000/svg">
<path opacity="0.1" d="M285.921 79.7517C253.676 79.9979 222.702 72.7089 193.082 64.5857C163.462 56.4625 134.083 47.341 102.471 43.6168C82.1378 41.2099 58.9974 41.5882 43.0115 50.9103C27.6317 59.8723 23.0839 74.5596 20.8373 88.1165C19.1466 98.3184 18.3218 109.022 24.2732 118.307C28.4064 124.748 35.5244 130.036 40.5325 136.172C57.9675 157.524 47.1584 184.998 29.8692 207.061C21.7715 217.395 12.2929 227.341 6.12279 238.282C-0.0473622 249.222 -2.6175 261.58 3.4843 272.288C9.53596 282.904 23.3254 290.549 38.1538 295.741C68.2754 306.289 103.396 308.368 137.601 309.038C213.31 310.515 289.216 306.011 364.912 301.512C392.928 299.848 421.068 298.171 448.523 293.694C463.771 291.21 479.479 287.572 490.334 279.745C504.114 269.808 507.049 253.707 497.169 242.211C480.595 222.933 436.561 219.564 424.713 198.664C418.192 187.158 423.998 173.88 432.46 162.693C450.661 138.693 481.83 117.108 482.564 90.3821C483.07 72.0342 467.07 54.2425 443.064 46.4248C417.891 38.2195 383.468 40.5945 365.668 56.2802C347.368 72.4035 314.402 79.5375 285.921 79.7517Z" fill="#6C63FF"/>
<rect x="100.474" width="311.799" height="33.4754" fill="#556080"/>
<rect x="111.951" y="33.4754" width="289.801" height="206.591" fill="#ECF0F1"/>
<rect x="100.474" y="232.415" width="311.799" height="15.303" rx="7.65152" fill="#556080"/>
<rect x="249.678" y="240.066" width="14.3466" height="39.214" fill="#556080"/>
<circle cx="256.374" cy="285.019" r="24.8674" fill="#556080"/>
<circle cx="256.374" cy="285.019" r="13.3902" fill="white"/>
<rect x="281.241" y="61.2121" width="38.2576" height="14.3466" rx="7.1733" fill="#C4C4C4" fill-opacity="0.5"/>
<rect x="281.241" y="86.0796" width="58.3428" height="9.5644" rx="4.7822" fill="#C4C4C4" fill-opacity="0.5"/>
<rect x="281.241" y="110.947" width="58.3428" height="9.5644" rx="4.7822" fill="#C4C4C4" fill-opacity="0.5"/>
<rect x="281.241" y="132.945" width="44.9527" height="9.5644" rx="4.7822" fill="#C4C4C4" fill-opacity="0.5"/>
<rect x="281.241" y="152.074" width="30.6061" height="9.5644" rx="4.7822" fill="#C4C4C4" fill-opacity="0.5"/>
<rect x="361.582" y="86.0796" width="19.1288" height="14.3466" rx="7.1733" fill="#C4C4C4" fill-opacity="0.5"/>
<rect x="354.887" y="61.2121" width="38.2576" height="14.3466" rx="7.1733" fill="#C4C4C4" fill-opacity="0.5"/>
<rect x="326.194" y="61.2121" width="21.9981" height="14.3466" rx="7.1733" fill="#C4C4C4" fill-opacity="0.5"/>
<rect x="217.159" y="74.6023" width="9.5644" height="55.4735" rx="4.7822" fill="#2F80ED"/>
<rect x="195.161" y="50.6913" width="9.5644" height="79.3845" rx="4.7822" fill="#F2C94C"/>
<rect x="173.163" y="90.8618" width="9.5644" height="39.214" rx="4.7822" fill="#F2994A"/>
<rect x="151.165" y="96.6004" width="9.5644" height="33.4754" rx="4.7822" fill="#27AE60"/>
<rect x="129.167" y="50.6913" width="9.5644" height="79.3845" rx="4.7822" fill="#BB6BD9"/>
<rect x="129.167" y="160.682" width="84.1667" height="14.3466" rx="7.1733" fill="#C4C4C4" fill-opacity="0.5"/>
<rect x="129.167" y="188.419" width="113.816" height="14.3466" rx="7.1733" fill="#C4C4C4" fill-opacity="0.5"/>
<path d="M30.6575 137.62C30.9313 136.155 31.0924 134.672 31.1394 133.182C31.1394 131.399 33.5488 129.809 33.5488 129.809C33.5488 129.809 35.0475 126.339 36.0305 125.833C37.0136 125.327 40.1122 120.783 40.1122 120.783C40.1473 119.888 40.4739 119.028 41.0422 118.335C41.9659 117.121 42.8094 115.847 43.5673 114.523C43.9817 114.012 43.7745 113.656 44.3962 110.697C44.4315 110.543 44.47 110.394 44.5118 110.249C44.5118 110.181 44.5552 110.124 44.5745 110.061C43.9127 109.396 43.4514 108.557 43.2435 107.642C43.0356 106.727 43.0894 105.772 43.3986 104.886C43.5132 104.534 43.7175 104.218 43.9914 103.97C44.6949 103.396 45.8177 103.633 46.5406 103.088L45.7744 99.6859C45.5864 98.8571 45.49 97.7969 46.2225 97.3488C46.4954 97.2174 46.7835 97.1203 47.0803 97.0596C48.3428 96.6597 49.0512 95.3296 49.3741 94.0574C49.6881 92.8306 49.773 91.5564 49.6246 90.2987C49.4849 89.094 49.1428 87.9182 48.9982 86.7086C48.7662 84.467 49.305 82.2131 50.5258 80.3188C51.005 79.5059 51.7052 78.8458 52.5449 78.4153C53.3207 78.0684 54.2219 78.025 54.9544 77.5672C56.506 76.6034 56.4289 74.247 57.6626 72.8929C58.8962 71.5388 61.0888 71.5532 62.8911 72.0158C64.6933 72.4784 66.4811 73.2736 68.3316 73.0663C69.5219 72.9362 70.6399 72.3965 71.8301 72.2712C72.1728 72.2367 72.5186 72.2529 72.8565 72.3194L72.8325 72.276C73.7191 72.4351 74.5287 72.9266 74.7359 73.7651C74.7821 73.964 74.8015 74.1682 74.7937 74.3723C74.7937 74.8541 74.6781 75.3649 74.6685 75.8179C74.6543 76.0028 74.6768 76.1887 74.7347 76.3648C74.7926 76.5409 74.8847 76.7039 75.0058 76.8444C75.2419 77.0998 75.5937 77.2347 75.825 77.4949C75.9242 77.5959 76.0021 77.7157 76.0543 77.8473C76.1064 77.9789 76.1317 78.1196 76.1286 78.2611C76.1286 79.0032 75.2033 79.6538 74.5817 79.9525C74.7504 80.1212 74.9142 80.2947 75.0636 80.473C76.83 82.4892 77.7953 85.0835 77.7766 87.764C77.7682 89.9331 77.1249 92.0524 75.926 93.8601C74.7271 95.6679 73.0252 97.085 71.0302 97.9367C71.0591 98.0282 71.0832 98.115 71.1169 98.2065C71.2882 98.7433 71.4909 99.2694 71.7241 99.7823C72.155 99.6371 72.6124 99.5877 73.0644 99.6376C73.5164 99.6876 73.952 99.8356 74.3408 100.071C75.531 100.886 77.8537 100.838 78.4754 100.683C79.097 100.529 85.5543 99.7197 86.07 99.9172C86.5856 100.115 87.6216 99.204 88.2915 100.428C88.9613 101.652 89.2552 102.317 89.9443 102.621C90.6334 102.924 91.8044 103.898 91.6502 104.1C91.496 104.302 93.3561 105.546 93.3561 105.546C93.3561 105.546 94.956 107.227 95.886 107.435C96.8161 107.642 98.7774 108.914 98.7774 108.914L101.052 110.697C101.052 110.697 102.758 110.952 102.242 109.782C101.727 108.611 103.172 107.126 103.172 107.126C103.172 107.126 106.064 101.262 106.064 100.043C106.064 98.8233 108.439 93.6671 108.439 93.6671L108.733 93.6382C108.777 93.5129 108.82 93.3876 108.868 93.2575C109.302 92.0287 109.866 90.5252 110.314 89.6385C111.133 87.9567 111.663 87.764 111.663 87.764C111.663 87.764 121.686 80.2369 128.197 82.5307C134.707 84.8245 116.313 91.6576 114.66 92.3757C114.082 92.6214 113.668 93.431 113.374 94.3707C114.837 95.0865 116.066 96.2049 116.916 97.5945C116.916 97.5945 112.94 106.413 112.839 108.606C112.738 110.798 110.097 116.918 110.097 116.918C110.097 116.918 109.133 121.458 103.794 121.202C103.794 121.202 96.4595 122.547 94.8596 121.202C93.2597 119.858 91.8093 118.793 91.0334 118.643C90.4601 118.455 89.9564 118.1 89.5877 117.622C89.5877 117.622 91.9972 132.917 93.2019 134.247C94.4066 135.577 104.931 152.756 101.163 155.812C98.1726 158.134 95.0121 160.228 91.7081 162.076C91.3852 162.235 90.4262 160.63 89.0528 159.498C89.0528 159.782 89.0528 160.076 89.0528 160.38C89.0288 166.49 88.2336 175.8 87.1012 177.882C85.4483 180.942 86.1374 186.86 86.1374 186.86C85.2609 187.27 84.3099 187.498 83.3425 187.53C83.2943 187.727 83.2365 187.934 83.1786 188.151C82.2679 191.592 80.7933 196.912 80.0415 198.329C78.8994 200.473 78.0754 207.253 78.0754 207.253C78.0754 207.253 77.4056 213.932 77.661 214.853C77.7622 215.204 77.3237 217.975 76.6394 221.493C77.0586 226.273 77.8441 235.492 77.979 238.841C77.979 238.904 77.979 238.966 77.979 239.029V239.198C77.979 239.27 77.979 239.338 77.979 239.4C77.9963 239.609 77.9963 239.818 77.979 240.027C77.9208 240.348 77.944 240.68 78.0465 240.99C78.3365 241.913 78.7124 242.807 79.1693 243.66C79.1934 243.747 79.4729 244.325 79.6512 244.956C80.0608 245.135 80.5716 245.583 80.8559 246.667C81.3715 248.657 82.1474 254.165 82.1474 254.165C82.1474 254.165 82.4558 257.538 83.0774 258.295C83.6991 259.052 84.3159 263.851 79.9259 264.463C75.5359 265.075 73.6228 262.131 73.6228 262.131L73.777 248.783C73.688 248.669 73.612 248.546 73.5505 248.416V248.387C73.5216 248.32 73.4878 248.257 73.4589 248.18C73.43 248.103 73.4589 248.118 73.4204 248.084C73.3818 248.05 73.377 247.978 73.3577 247.92C73.3598 247.901 73.3598 247.881 73.3577 247.862C72.93 246.583 72.803 245.223 72.9867 243.887C72.9867 243.887 72.9867 243.843 72.9867 243.819V243.713C72.9867 243.679 72.9867 243.646 72.9867 243.612C72.9844 243.581 72.9844 243.551 72.9867 243.52C72.9891 243.482 72.9891 243.443 72.9867 243.405V243.323C72.9867 243.236 72.9867 243.144 72.9577 243.053C72.9604 243.035 72.9604 243.017 72.9577 243C72.9577 242.947 72.9577 242.894 72.9577 242.841C72.9554 242.817 72.9554 242.793 72.9577 242.769C72.9577 242.716 72.9337 242.658 72.924 242.6V242.561C72.8855 242.364 72.8325 242.166 72.7794 241.959V241.916L72.7216 241.713C72.6541 241.496 72.5819 241.284 72.5096 241.072V241.029L72.4373 240.831V240.807C72.365 240.605 72.2879 240.407 72.2108 240.219V240.166L72.1385 239.998V239.95L71.9795 239.574L70.7603 243.337C70.7603 243.337 70.0905 246.142 70.4519 246.802C70.8133 247.462 70.0375 250.223 69.5219 250.272L70.0038 253.741C70.2698 255.659 70.4307 257.589 70.4856 259.524C70.5194 259.741 70.5531 259.929 70.5772 260.073C70.9097 261.847 70.0953 264.603 70.0953 264.603C66.0137 269.422 61.1563 264.979 61.1563 264.979C61.1563 264.979 60.5876 262.425 61.1563 261.919C61.7249 261.413 61.4647 259.572 61.4647 259.572C61.4647 259.572 61.2093 255.033 61.1563 251.717C61.1033 248.402 63.8693 245.486 63.8693 245.486L64.0235 245.626C64.5054 244.33 65.0981 242.812 64.9873 242.132C64.7801 240.961 65.5559 228.572 65.5559 228.572C65.2725 225.258 65.2129 221.929 65.3776 218.607C65.3102 218.043 65.2475 217.489 65.1849 216.954C64.8716 214.289 64.6211 212.01 64.5199 210.819V210.68C64.4958 210.357 64.4813 210.13 64.4861 210.019C64.4861 209.624 64.4861 209.128 64.4476 208.607C64.3464 207.162 64.1247 205.581 64.1247 205.581L63.0405 199.003C63.0405 199.003 62.2164 195.794 61.0262 194.006L60.8864 193.78C60.8382 193.703 60.79 193.616 60.7418 193.524V193.486L60.5973 193.211V193.172C60.4286 192.845 60.2503 192.464 60.0672 192.05L60.0238 191.958L59.8841 191.64L59.8311 191.515L59.6913 191.197C59.6913 191.153 59.6576 191.115 59.6383 191.071C59.5853 190.941 59.5323 190.811 59.4745 190.681L59.3974 190.493C59.354 190.397 59.3155 190.3 59.2769 190.199L59.1709 189.949L59.0986 189.761L58.9829 189.476C58.9829 189.433 58.9444 189.39 58.9299 189.346C58.636 188.609 58.3469 187.901 58.0963 187.216C58.0144 187.009 57.9372 186.812 57.865 186.619C55.2194 186.783 53.4219 186.932 53.4219 186.932C53.4219 186.932 52.5931 180.966 52.8533 177.039C53.0316 174.36 52.5353 170.986 52.2028 169.121C52.1642 168.914 52.1305 168.731 52.1016 168.567L52.0293 168.625C50.733 169.642 49.8078 166.278 49.8078 166.278C49.8078 166.278 50.1547 163.132 50.6222 159.329C50.6222 159.204 50.6559 159.074 50.6703 158.949C49.9242 159.107 49.1696 159.223 48.4103 159.296C48.4103 159.296 47.9959 159.257 47.4465 159.185C45.8873 160.076 44.2442 160.812 42.5409 161.382L39.8037 156.284C39.2872 155.232 38.6827 154.226 37.9967 153.277C37.1678 152.255 34.2235 148.993 34.2765 148.381C34.3295 147.769 33.3127 144.251 32.2622 142.67C31.2116 141.09 30.5997 137.88 30.6575 137.62ZM42.1264 141.475C43.2107 141.933 44.2468 144.482 44.295 145.249C44.3431 146.015 45.4852 149.378 46.6755 149.788C47.7646 150.164 49.856 152.082 50.1885 152.39C50.5306 152.424 50.9161 152.467 51.3209 152.535C51.7739 149.316 52.222 146.656 52.5112 146.116C53.3352 144.584 51.6004 139.692 51.6004 139.692C51.6004 139.692 51.4269 134.748 50.3427 133.572C49.2584 132.397 49.5138 129.443 49.5138 129.443C49.5138 129.443 49.2584 128.219 49.1524 127.66C49.0464 127.101 47.6152 127.66 47.6055 127.66C47.6055 127.66 44.8154 129.187 44.401 131.481C43.9865 133.775 40.941 137.746 40.941 137.746C40.941 137.746 41.4229 139.119 40.941 139.837C40.4591 140.555 41.0374 141.037 42.1216 141.495L42.1264 141.475Z" fill="url(#paint0_linear)"/>
<path d="M116.843 97.9177C115.992 96.5156 114.746 95.3958 113.261 94.6989C111.776 94.0019 110.119 93.7586 108.496 93.9996V99.9562H112.096L114.949 99.2189L116.843 97.9177Z" fill="#4C4981"/>
<path opacity="0.1" d="M116.843 97.9177C115.992 96.5156 114.746 95.3958 113.261 94.6989C111.776 94.0019 110.119 93.7586 108.496 93.9996V99.9562H112.096L114.949 99.2189L116.843 97.9177Z" fill="black"/>
<path d="M108.242 95.5762L112.67 98.6844C112.67 98.6844 112.709 98.058 112.82 97.2099C113.041 95.6052 113.538 93.1957 114.607 92.7283C116.236 92.0151 134.365 85.1963 127.936 82.9074C121.508 80.6184 111.653 88.1262 111.653 88.1262C111.653 88.1262 111.143 88.2997 110.333 89.9815C109.904 90.8634 109.369 92.3669 108.916 93.5909C108.526 94.6992 108.242 95.5762 108.242 95.5762Z" fill="#AE6E79"/>
<path d="M72.8325 100.361L72.3313 100.12L70.9144 101.734L72.071 104.202L74.0421 103.411L73.5843 101.44L72.8325 100.361Z" fill="#4C4981"/>
<path d="M79.5403 244.894C79.5403 244.894 80.8125 244.744 81.3233 246.725C81.8341 248.705 82.5955 254.209 82.5955 254.209C82.5955 254.209 82.8991 257.582 83.5111 258.329C84.1231 259.076 84.7303 263.875 80.4077 264.487C76.0852 265.099 74.1962 262.16 74.1962 262.16L74.3504 248.811L79.5403 244.894Z" fill="#444053"/>
<path d="M64.4523 245.496C64.4523 245.496 61.7296 248.387 61.7778 251.712C61.826 255.037 62.0862 259.553 62.0862 259.553C62.0862 259.553 62.3368 261.384 61.7778 261.895C61.2188 262.406 61.7778 264.945 61.7778 264.945C61.7778 264.945 66.5629 269.388 70.5819 264.574C70.5819 264.574 71.3674 261.822 71.0638 260.049C70.7602 258.276 69.8446 250.291 69.8446 250.291L64.4523 245.496Z" fill="#444053"/>
<path d="M57.7058 184.624C57.7058 184.624 60.4574 192.334 61.6284 194.088C62.7994 195.842 63.609 199.08 63.609 199.08L64.6787 205.649C64.8886 207.116 65.0077 208.595 65.0353 210.077C64.9872 211.552 67.6809 233.078 67.6809 233.078L71.9553 238.523C71.9553 238.523 73.8395 242.34 73.5359 243.92C73.2323 245.501 73.7383 248.04 74.3503 248.802C74.3503 248.802 74.4515 253.789 74.6057 254.912C74.7599 256.035 74.0419 259.187 74.6057 259.731C75.1695 260.276 82.6436 260.035 82.8508 259.119C83.058 258.203 81.9304 253.775 81.9304 253.775L81.2702 249.501C81.2702 249.501 79.9498 247.159 80.2534 246.397C80.557 245.636 79.6944 243.853 79.6414 243.699C79.5884 243.544 78.1957 241.053 78.4704 240.089C78.7451 239.125 76.8946 218.611 76.8946 218.611L71.6517 181.814L57.7058 184.624Z" fill="#AE6E79"/>
<path opacity="0.1" d="M57.7059 184.624C57.7059 184.624 58.1203 185.78 58.6986 187.303C59.6045 189.713 60.9105 192.999 61.6285 194.088C62.7995 195.871 63.6139 199.076 63.6139 199.076L64.6788 205.644C64.8885 207.11 65.0076 208.587 65.0354 210.068C65.0354 210.651 65.4258 214.371 65.9269 218.65C66.6979 225.199 67.681 233.073 67.681 233.073L71.9602 238.518C71.9602 238.518 72.177 238.957 72.4421 239.593C72.977 240.841 73.7335 242.87 73.5311 243.93C73.2275 245.511 73.7335 248.055 74.3455 248.816C74.3455 248.816 74.4467 253.809 74.6009 254.922C74.7551 256.035 74.0371 259.201 74.6009 259.741C75.1647 260.28 82.6389 260.049 82.8461 259.129C83.0533 258.208 81.9305 253.789 81.9305 253.789L81.2655 249.51C81.2655 249.51 79.9451 247.168 80.2487 246.407C80.5523 245.645 79.6897 243.862 79.6367 243.708C79.5837 243.554 78.191 241.063 78.4657 240.094C78.6633 239.357 77.6465 227.305 77.1549 221.59C76.9959 219.787 76.8899 218.621 76.8899 218.621L72.3794 186.966L72.018 184.412L71.6469 181.824L57.7059 184.624Z" fill="black"/>
<path d="M62.2886 261.182C62.2404 261.741 69.4639 262.555 70.4807 261.943C71.4975 261.331 70.4807 253.751 70.4807 253.751L69.9988 250.291C70.5096 250.238 71.271 247.491 70.9144 246.826C70.5578 246.161 71.2228 243.366 71.2228 243.366L72.4227 239.607L73.1552 237.314C74.3406 234.687 76.0465 227.194 77.1356 221.604C77.8102 218.091 78.2391 215.339 78.1427 214.968C77.8873 214.053 78.5524 207.388 78.5524 207.388C78.5524 207.388 79.3619 200.642 80.4799 198.483C81.222 197.066 82.6725 191.736 83.5736 188.32C84.0314 186.561 84.3495 185.298 84.3495 185.298C84.3495 185.298 76.6393 184.653 71.9938 184.426C69.8446 184.325 68.3411 184.31 68.5194 184.489C68.6977 184.667 68.7363 185.597 68.7266 186.942C68.7266 190.435 68.2206 196.579 67.705 198.227C66.9918 200.516 66.2594 207.383 66.587 208.048C66.9147 208.713 66.7894 213.137 66.7894 213.137C66.2669 214.936 65.9675 216.792 65.8979 218.664C65.736 221.98 65.7955 225.303 66.0762 228.611C66.0762 228.611 65.31 240.976 65.5172 242.147C65.7245 243.318 63.8885 246.966 63.8885 247.693C63.8885 248.421 63.4258 253.24 63.4258 253.24C63.4258 253.24 62.3368 260.623 62.2886 261.182Z" fill="#AE6E79"/>
<path d="M58.2696 112.523L59.1466 113.487L59.7153 114.099L63.0499 117.641L71.6517 118.605L76.22 117.381L77.3524 117.082C77.3524 117.082 77.3524 114.784 77.1452 112.027C76.8561 108.495 76.1573 104.201 74.4996 103.035C73.6696 102.384 73.0085 101.543 72.5721 100.582C72.2391 99.92 71.9603 99.2318 71.7384 98.5246C71.7047 98.433 71.6806 98.3463 71.6517 98.2595C71.2742 97.0257 71.0034 95.7617 70.8421 94.4815C70.8421 94.4815 69.7434 93.8743 68.2206 93.166C64.2354 91.3059 57.354 88.7422 59.749 94.4815C60.1019 95.3227 60.4013 96.1854 60.6453 97.0644C60.6839 97.1897 60.7176 97.3198 60.7465 97.4451C61.5464 100.645 61.0164 102.582 60.4188 103.652C60.316 103.835 60.2001 104.011 60.0719 104.177C59.911 104.402 59.7158 104.6 59.4936 104.765L58.5009 111.054L58.419 111.574L58.2696 112.523Z" fill="#AE6E79"/>
<path opacity="0.1" d="M59.7434 94.8143C60.1964 95.9035 59.5217 93.9227 59.7434 94.8143C61.5554 96.1059 65.8301 99.7782 68.235 99.7782C69.8542 99.7782 70.341 99.4842 71.7338 98.8577C71.3119 97.5402 71.0118 96.1867 70.8374 94.8143C70.8374 94.8143 56.4374 86.8721 59.7434 94.8143Z" fill="black"/>
<path d="M56.0866 88.1254C56.0849 90.8667 57.0991 93.5114 58.9334 95.5486C60.7677 97.5858 63.2919 98.871 66.0184 99.1558C66.404 99.1986 66.7917 99.2195 67.1797 99.2184C69.3718 99.2184 71.5147 98.5684 73.3374 97.3506C75.16 96.1327 76.5806 94.4017 77.4195 92.3764C78.2584 90.3512 78.4779 88.1227 78.0502 85.9727C77.6226 83.8227 76.567 81.8478 75.0169 80.2978C73.4669 78.7477 71.492 77.6922 69.342 77.2645C67.192 76.8368 64.9635 77.0563 62.9383 77.8952C60.913 78.7341 59.182 80.1547 57.9642 81.9774C56.7463 83.8 56.0963 85.9429 56.0963 88.135L56.0866 88.1254Z" fill="#AE6E79"/>
<path opacity="0.1" d="M54.5014 137.307L56.0772 141.432C56.0772 141.432 57.3687 141.49 59.3733 141.552C66.1198 141.769 81.0584 142.034 81.7282 140.309C81.8811 139.869 81.9593 139.407 81.9595 138.941C82.0511 136.29 80.8126 132.218 80.8126 132.218C80.8126 132.218 80.0994 124.074 80.0994 123.723C80.0994 123.371 80.7114 117.641 80.7114 117.641L79.4922 113.063L76.0805 110.654C76.0805 110.654 74.5529 112.996 73.6373 113.198C72.7217 113.4 71.4977 114.523 71.4977 114.523C71.4977 114.523 68.5003 116.354 67.5317 115.333C66.5631 114.311 59.0312 109.839 59.0312 109.839L55.0604 114.215L54.5014 137.307Z" fill="black"/>
<path d="M54.5014 137.919L56.0772 142.044C56.0772 142.044 57.3687 142.102 59.3733 142.16H59.5709L62.496 142.237C67.8739 142.357 75.2902 142.391 79.1597 141.827C80.6054 141.615 81.5692 141.345 81.7282 140.912C81.8182 140.667 81.8797 140.413 81.9113 140.155C81.9377 139.952 81.9538 139.748 81.9595 139.543C82.0511 136.893 80.8126 132.797 80.8126 132.797C80.8126 132.797 80.0994 124.653 80.0994 124.296C80.0994 123.939 80.7114 118.239 80.7114 118.239L79.4922 113.661L77.1454 112.017L76.0805 111.271C75.7227 111.807 75.3316 112.32 74.9095 112.808C74.583 113.25 74.1436 113.596 73.6373 113.81C72.7217 114.017 71.4977 115.135 71.4977 115.135C71.4977 115.135 68.5003 116.971 67.5317 115.95C66.7896 115.169 62.231 112.369 60.101 111.092L59.0312 110.451L58.4963 111.044L55.0604 114.832L54.5014 137.919Z" fill="white"/>
<path opacity="0.1" d="M108.241 95.5756L112.67 98.684C112.67 98.684 112.709 98.0575 112.82 97.2093C110.632 96.2888 109.302 94.2454 108.916 93.59C108.526 94.6984 108.241 95.5756 108.241 95.5756Z" fill="black"/>
<path d="M92.6718 106.109L93.6356 105.859C93.6356 105.859 95.2162 107.536 96.1318 107.738C97.0474 107.941 98.9797 109.218 98.9797 109.218L101.221 110.996C101.221 110.996 102.902 111.251 102.392 110.08C101.881 108.909 103.307 107.435 103.307 107.435C103.307 107.435 106.155 101.58 106.155 100.361C106.155 99.1414 108.497 93.9996 108.497 93.9996C108.497 93.9996 111.451 99.7485 116.843 97.9174C116.843 97.9174 112.926 106.721 112.824 108.909C112.723 111.097 110.126 117.207 110.126 117.207C110.126 117.207 109.162 121.737 103.919 121.482C103.919 121.482 96.6908 122.826 95.115 121.482C93.5392 120.137 92.1128 119.072 91.3466 118.928C90.7819 118.738 90.2867 118.384 89.925 117.911V111.858L92.6718 106.109Z" fill="#283288"/>
<path opacity="0.1" d="M101.731 111.858C101.731 111.858 100.459 116.591 101.249 117.102L101.731 111.858Z" fill="black"/>
<path opacity="0.1" d="M59.3733 142.16C66.1198 142.377 81.0583 142.642 81.7282 140.921C81.881 140.481 81.9592 140.019 81.9595 139.553L59.8456 140.719L59.3733 142.16Z" fill="black"/>
<path opacity="0.1" d="M57.7059 184.624C57.7059 184.624 58.1203 185.78 58.6938 187.303C61.5032 187.13 65.2234 186.951 68.7556 186.927C70.0085 186.927 71.2325 186.927 72.3843 186.966C74.3798 186.967 76.3692 187.189 78.3163 187.626C80.0312 188.155 81.8243 188.384 83.6171 188.305C84.0749 186.547 84.3929 185.284 84.3929 185.284C84.3929 185.284 76.6827 184.638 72.0373 184.412L71.6662 181.824L57.7059 184.624Z" fill="black"/>
<path d="M51.7547 166.013L52.6173 167.844C52.6173 167.844 52.7377 168.389 52.892 169.256C53.2196 171.116 53.7112 174.485 53.5377 177.159C53.2775 181.077 54.0967 187.028 54.0967 187.028C54.0967 187.028 72.8229 185.453 78.3164 187.028C83.81 188.604 86.5086 187.028 86.5086 187.028C86.5086 187.028 85.8484 181.125 87.4723 178.075C88.5903 175.983 89.371 166.702 89.3999 160.606C89.3999 157.787 89.2602 155.653 88.918 155.224C87.8 153.845 83.0149 140.107 83.0149 140.107L81.9258 140.165L79.0345 140.319L62.4623 141.191L59.8649 141.326L59.5902 142.169L51.7547 166.013Z" fill="#D7D7D7"/>
<path d="M43.509 159.903L43.3547 161.532C43.3547 161.532 51.5475 158.862 51.1427 155.581C50.7379 152.299 51.1427 152.689 51.1427 152.689L44.5499 153.248L43.509 159.903Z" fill="#4C4981"/>
<path opacity="0.1" d="M43.509 159.903L43.3547 161.532C43.3547 161.532 51.5475 158.862 51.1427 155.581C50.7379 152.299 51.1427 152.689 51.1427 152.689L44.5499 153.248L43.509 159.903Z" fill="black"/>
<path opacity="0.1" d="M96.257 113.174C95.4186 113.886 94.4302 114.4 93.3654 114.678C93.6791 114.619 93.9727 114.481 94.2184 114.278C94.8064 113.858 95.3654 113.405 95.9293 112.962C96.3823 112.605 96.9558 111.998 97.5197 111.868C97.1451 112.346 96.7219 112.784 96.257 113.174Z" fill="black"/>
<path opacity="0.1" d="M96.1317 115.319C95.866 115.616 95.6525 115.957 95.5003 116.326C95.3688 116.747 95.307 117.186 95.3172 117.627C95.2505 118.251 95.328 118.883 95.5437 119.473L96.8786 116.306C97.1052 115.767 97.3606 115.227 97.6112 114.706C97.7317 114.485 98.4883 113.569 98.4015 113.376C98.1509 112.822 96.3774 115.015 96.1317 115.319Z" fill="black"/>
<path opacity="0.1" d="M59.4402 132.879C58.5389 132.774 57.6947 132.384 57.0306 131.765C58.3848 131.934 59.6619 132.464 60.9969 132.729C62.2332 133.018 63.5296 132.899 64.6932 132.392C63.1752 133.153 61.0884 133.177 59.4402 132.879Z" fill="black"/>
<path opacity="0.1" d="M63.2617 123.564C63.3823 123.583 63.5055 123.577 63.6239 123.547C63.7423 123.517 63.8535 123.464 63.9508 123.39C64.9661 122.812 65.9685 122.205 66.9581 121.569C68.0022 120.989 68.9869 120.307 69.8978 119.535C67.8785 121.361 65.999 122.904 63.2617 123.564Z" fill="black"/>
<path opacity="0.1" d="M60.4381 134.358C59.9065 134.382 59.3739 134.339 58.8526 134.233C58.3249 134.121 57.8585 133.815 57.5466 133.375C57.7355 133.33 57.9347 133.361 58.1008 133.462C59.713 134.139 61.4827 134.351 63.2092 134.074C62.3851 134.425 61.3201 134.353 60.4381 134.358Z" fill="black"/>
<path opacity="0.1" d="M70.08 157.985C71.1398 158.308 72.2297 158.523 73.333 158.626C74.191 158.665 75.0506 158.649 75.9065 158.578L80.0752 158.313L82.1619 158.178C82.4077 158.178 83.4149 158.178 82.9185 157.696C82.6679 157.46 81.2752 157.609 80.9185 157.599C80.2246 157.599 79.5354 157.566 78.8462 157.561C77.4679 157.561 76.0848 157.561 74.7065 157.648C73.1579 157.709 71.6157 157.821 70.08 157.985Z" fill="black"/>
<path opacity="0.1" d="M74.9038 160.047C75.6122 160.018 76.5231 160.443 77.2508 160.529C78.0645 160.628 78.8847 160.662 79.7038 160.631C81.3273 160.59 82.931 160.264 84.4412 159.667C81.2556 159.826 78.0797 159.922 74.9038 160.047Z" fill="black"/>
<path opacity="0.1" d="M83.8193 162.23C83.5108 162.293 83.2066 162.375 82.9085 162.476C81.1543 162.982 79.2844 162.539 77.5157 162.1C77.9591 162.765 78.7832 163.064 79.5639 163.238C80.8709 163.564 82.2319 163.614 83.5591 163.382C83.9784 163.3 85.0049 163.151 85.2362 162.717C85.5543 162.076 84.2097 162.168 83.8193 162.23Z" fill="black"/>
<path opacity="0.1" d="M73.9649 165.512C73.4391 165.619 72.9195 165.754 72.4084 165.917C70.4326 166.399 68.3798 165.734 66.3944 165.281C64.0075 164.736 61.5593 164.51 59.113 164.606C59.5516 164.606 60.2455 164.992 60.6744 165.122C61.2382 165.29 61.8068 165.445 62.3754 165.604C63.4975 165.883 64.633 166.105 65.7776 166.269C68.0875 166.603 70.4251 166.705 72.7553 166.572C73.8203 166.514 75.6467 166.625 76.5815 166.09C75.795 165.619 74.8767 165.416 73.9649 165.512Z" fill="black"/>
<path opacity="0.1" d="M73.2276 102.746C73.2276 102.746 73.1264 107.435 73.8926 109.569C74.1287 110.234 74.5046 111.463 74.9094 112.842C75.3576 114.369 75.8443 116.08 76.2201 117.405C76.596 118.73 76.8418 119.646 76.8418 119.646C76.8418 119.646 78.5621 133.649 79.0103 140.319C79.0103 140.434 79.0103 140.555 79.0103 140.666C79.0344 141.042 79.0778 141.432 79.1356 141.837C80.1283 148.463 85.8435 158.679 87.7614 159.498C88.3586 159.773 88.9045 160.148 89.3757 160.606C89.3757 157.787 89.236 155.653 88.8938 155.224C87.7759 153.845 82.9907 140.107 82.9907 140.107L81.9016 140.165C81.928 139.962 81.9441 139.757 81.9498 139.553C82.0414 136.902 80.8029 132.806 80.8029 132.806C80.8029 132.806 80.0897 124.662 80.0897 124.306C80.0897 123.949 80.7017 118.248 80.7017 118.248L79.4825 113.67L77.1357 112.027C76.8466 108.495 76.1479 104.201 74.4902 103.035C73.6601 102.384 72.999 101.543 72.5626 100.582C72.2301 100.626 72.8325 100.336 72.8325 100.336L73.2276 102.746Z" fill="black"/>
<path d="M72.3313 100.12C72.7562 99.9757 73.2076 99.9275 73.6532 99.9783C74.0989 100.029 74.5278 100.178 74.9094 100.414C76.0804 101.223 78.3694 101.175 78.9814 101.021C79.5934 100.867 85.9543 100.057 86.4603 100.259C86.9663 100.462 87.9879 99.5462 88.6481 100.765C89.3083 101.985 89.6119 102.65 90.2769 102.958C90.9419 103.266 92.1129 104.23 91.9587 104.433C91.8045 104.635 93.6356 105.878 93.6356 105.878L89.9251 117.925C89.9251 117.925 92.3345 133.192 93.4862 134.512C94.638 135.832 105.052 152.988 101.322 156.043C98.3789 158.36 95.2668 160.454 92.0117 162.307C91.6021 162.51 90.1275 159.763 88.0891 158.896C86.0507 158.028 79.7428 146.554 79.3283 140.059C78.9139 133.563 77.1406 119.039 77.1406 119.039C77.1406 119.039 74.9528 111.097 74.1866 108.962C73.4204 106.827 73.5457 102.134 73.5457 102.134L72.3313 100.12Z" fill="#283288"/>
<path opacity="0.1" d="M51.7548 166.013L52.6174 167.844C52.6174 167.844 52.7379 168.389 52.8921 169.256C53.054 169.24 53.2069 169.174 53.3306 169.068C54.6028 168.047 62.0865 160.365 62.4383 153.542C62.7033 148.511 62.5781 144.179 62.4961 142.246C62.4672 141.639 62.4479 141.283 62.4431 141.191C62.4431 141.191 56.6604 134.165 57.3062 131.674C57.9519 129.182 59.494 115.844 59.494 115.844L59.7204 114.094L60.106 111.14L61.0167 103.98L60.0529 104.201C59.892 104.426 59.6969 104.624 59.4747 104.789L58.482 111.078L55.0461 114.865L54.4871 137.919L56.0629 142.044C56.0629 142.044 57.3544 142.102 59.359 142.16H59.5566L51.7548 166.013Z" fill="black"/>
<path d="M48.5453 127.944C48.5453 127.944 49.991 127.385 50.0729 127.944C50.1548 128.503 50.4295 129.722 50.4295 129.722C50.4295 129.722 50.1789 132.676 51.2439 133.847C52.3089 135.018 52.4823 139.953 52.4823 139.953C52.4823 139.953 54.1931 144.839 53.3835 146.367C53.0895 146.921 52.6317 149.701 52.1739 153.026C51.8848 155.103 51.5957 157.392 51.3355 159.479C50.8536 163.281 50.5307 166.418 50.5307 166.418C50.5307 166.418 51.4463 169.791 52.7185 168.76C53.9907 167.729 61.4744 160.047 61.831 153.238C62.0816 148.443 61.9804 144.285 61.8985 142.232C61.8599 141.36 61.831 140.868 61.831 140.868C61.831 140.868 56.0483 133.847 56.6892 131.356C57.3302 128.864 58.877 115.526 58.877 115.526L59.1469 113.468L59.4312 111.251L59.4938 110.769L60.4143 103.666C60.2504 103.7 54.54 104.992 53.7883 105.743C53.0365 106.495 48.3959 107.574 48.3959 107.574C47.6929 107.766 47.054 108.142 46.5455 108.664C46.0371 109.186 45.6777 109.835 45.5046 110.543C45.4612 110.683 45.4275 110.832 45.3937 110.986C44.7817 113.94 44.9842 114.292 44.5745 114.803C44.1649 115.314 48.5453 127.944 48.5453 127.944Z" fill="#283288"/>
<path opacity="0.1" d="M51.335 159.479C53.4266 159.074 56.5061 158.106 56.4386 155.985C56.3711 153.995 53.9808 153.282 52.1735 153.026C51.8603 155.103 51.5952 157.393 51.335 159.479Z" fill="black"/>
<path d="M44.8821 158.429C44.964 158.607 45.311 158.761 45.7689 158.911C46.8784 159.176 48.0059 159.36 49.1424 159.46C49.1424 159.46 56.2171 158.901 56.1159 155.696C56.0436 153.393 52.8484 152.805 51.0508 152.646C50.3472 152.583 49.8556 152.593 49.8556 152.593C49.8556 152.593 44.5737 157.768 44.8821 158.429Z" fill="#AE6E79"/>
<path opacity="0.1" d="M44.8823 158.429C44.9642 158.607 45.3112 158.761 45.769 158.911C47.6148 156.443 50.1883 153.277 51.4462 152.997C51.4462 152.997 51.3016 152.858 51.0654 152.646C50.3618 152.583 49.8703 152.593 49.8703 152.593C49.8703 152.593 44.5739 157.768 44.8823 158.429Z" fill="black"/>
<path d="M46.666 114.509L44.5794 114.812C43.8291 116.136 42.9954 117.411 42.0832 118.629C41.5232 119.324 41.2022 120.18 41.1676 121.072C41.1676 121.072 38.1125 125.602 37.1487 126.113C36.1849 126.624 34.7055 130.083 34.7055 130.083C34.7055 130.083 32.296 131.659 32.296 133.457C32.2554 134.941 32.1023 136.42 31.8383 137.88C31.7901 138.136 32.1948 141.292 33.2165 142.868C34.2381 144.444 35.25 147.957 35.197 148.569C35.144 149.181 38.0498 152.424 38.8642 153.455C39.5409 154.404 40.1358 155.408 40.6424 156.457L43.341 161.546C43.341 161.546 49.0417 153.152 51.1283 152.694C51.1283 152.694 48.7863 150.453 47.6153 150.048C46.4443 149.643 45.3263 146.28 45.2733 145.518C45.2203 144.757 44.2084 142.208 43.1386 141.75C42.0688 141.292 41.5098 140.834 41.9676 140.121C42.4254 139.408 41.9676 138.035 41.9676 138.035C41.9676 138.035 44.9697 134.064 45.3793 131.77C45.7889 129.476 48.5309 127.954 48.5309 127.954L50.1115 124.098L46.666 114.509Z" fill="#283288"/>
<path opacity="0.1" d="M39.0953 133.505C37.9432 132.532 36.4923 131.982 34.9844 131.948C35.9483 132.117 36.9699 132.324 37.6736 132.999C37.9523 133.295 38.2009 133.618 38.4157 133.963C38.6615 134.31 40.623 136.806 40.9362 136.416C41.4037 135.818 39.4904 133.842 39.0953 133.505Z" fill="black"/>
<path opacity="0.1" d="M43.7023 131.096C43.3918 131.069 43.0942 130.959 42.8401 130.779C42.586 130.599 42.3846 130.354 42.2565 130.07C42.0088 129.496 41.8558 128.885 41.8035 128.262C41.6539 127.221 41.4431 126.19 41.1721 125.173C41.1026 124.965 41.0684 124.747 41.0709 124.527C41.0959 124.311 41.1596 124.1 41.2589 123.906C41.3704 123.581 41.5192 123.271 41.7023 122.98C42.083 123.409 42.1842 124.368 42.3432 124.908C42.5296 125.602 42.7079 126.296 42.8782 126.99C42.9601 127.356 43.6685 131.096 43.7023 131.096Z" fill="black"/>
<path opacity="0.1" d="M45.5045 110.553C45.7114 110.819 45.9474 111.061 46.208 111.275C47.0224 111.936 48.1356 112.495 48.2513 113.535C48.2219 113.876 48.2629 114.219 48.3717 114.543C48.6368 114.996 49.2921 114.962 49.8174 114.87C50.2557 114.829 50.6758 114.674 51.0366 114.422C51.5811 113.94 51.6341 113.121 52.0485 112.538C52.2992 112.237 52.6153 111.997 52.9728 111.837C53.3302 111.676 53.7195 111.6 54.111 111.613C54.8917 111.589 55.6675 111.762 56.4434 111.801C56.9436 111.825 57.4449 111.791 57.9372 111.699C58.1011 111.671 58.2601 111.637 58.4191 111.598C58.7673 111.512 59.1074 111.396 59.4359 111.251C59.6005 111.183 59.7613 111.105 59.9178 111.02C60.4423 110.754 60.9286 110.418 61.3635 110.022C62.1249 109.319 62.7561 108.36 62.6935 107.319C62.5844 106.694 62.4396 106.077 62.2598 105.469C61.9466 103.671 63.1416 101.97 64.4379 100.683C64.9536 100.177 65.5029 99.6763 66.0185 99.1558C66.8229 98.4162 67.4589 97.5124 67.8834 96.5054C68.2235 95.4354 68.3368 94.3063 68.2159 93.19C68.0958 92.0554 68.062 90.9132 68.1147 89.7734C68.5003 85.7256 71.9699 82.627 75.4106 80.9356L75.5599 80.8585C74.5302 79.7028 73.2698 78.7757 71.86 78.1368C70.4502 77.4978 68.9222 77.1613 67.3744 77.1488C65.8266 77.1363 64.2933 77.4481 62.8734 78.0642C61.4534 78.6803 60.1782 79.587 59.13 80.7259C58.0817 81.8647 57.2836 83.2105 56.7871 84.6766C56.2906 86.1427 56.1067 87.6964 56.2472 89.2379C56.3877 90.7794 56.8495 92.2743 57.6029 93.6264C58.3563 94.9786 59.3845 96.1579 60.6214 97.0885C60.6599 97.2138 60.6936 97.3439 60.7226 97.4692C61.5225 100.669 60.9924 102.606 60.3949 103.676C60.231 103.71 54.5206 105.001 53.7689 105.753C53.0172 106.505 48.3765 107.584 48.3765 107.584C47.6771 107.779 47.0422 108.156 46.5373 108.678C46.0325 109.2 45.6759 109.847 45.5045 110.553Z" fill="black"/>
<path d="M76.3261 77.9093C76.0996 77.6491 75.7526 77.5142 75.5213 77.2588C74.8033 76.4781 75.5213 75.2011 75.2563 74.1699C74.9719 73.023 73.5696 72.5218 72.3938 72.6471C71.218 72.7724 70.1193 73.3073 68.9483 73.4374C67.1268 73.6446 65.3631 72.8543 63.5849 72.3917C61.8067 71.9291 59.6623 71.9098 58.4335 73.2639C57.2047 74.618 57.2962 76.9456 55.7735 77.9334C55.0699 78.3864 54.1832 78.4153 53.4218 78.7767C52.5893 79.2068 51.8984 79.8677 51.4316 80.6802C50.2284 82.5759 49.7004 84.8223 49.933 87.0556C50.0583 88.2603 50.4148 89.4361 50.5498 90.6409C50.6949 91.8951 50.6116 93.1653 50.304 94.39C49.9811 95.6573 49.2872 96.9873 48.0391 97.3873C47.747 97.4479 47.4637 97.5451 47.1958 97.6764C46.4778 98.1198 46.5694 99.1799 46.7525 100.004L47.5235 103.401C46.8103 103.946 45.7068 103.71 45.0129 104.283C44.7393 104.53 44.5378 104.846 44.4298 105.199C44.0978 106.154 44.0629 107.187 44.3295 108.163C44.5962 109.138 45.1519 110.01 45.9236 110.663C46.738 111.328 47.8512 111.883 47.9669 112.928C47.9358 113.267 47.9768 113.609 48.0873 113.931C48.3524 114.384 49.0077 114.35 49.533 114.258C49.9701 114.218 50.389 114.064 50.7474 113.81C51.2967 113.328 51.3449 112.509 51.7593 111.926C52.01 111.625 52.3261 111.385 52.6835 111.225C53.041 111.064 53.4303 110.988 53.8218 111.001C54.6073 110.977 55.3783 111.15 56.159 111.189C57.9692 111.267 59.7374 110.628 61.0791 109.41C61.4849 109.085 61.8146 108.675 62.0452 108.209C62.2758 107.743 62.4016 107.232 62.4139 106.712C62.3025 106.086 62.1577 105.467 61.9802 104.857C61.667 103.064 62.8621 101.358 64.1535 100.076C65.445 98.7944 66.9678 97.6042 67.599 95.8935C68.3893 93.7731 67.599 91.4119 67.8352 89.147C68.2207 85.0991 71.6903 82.0006 75.1261 80.314C75.9116 79.9333 77.2224 78.9261 76.3261 77.9093Z" fill="#444053"/>
<path opacity="0.1" d="M49.1138 112.856C49.6584 112.374 49.7066 111.56 50.121 110.972C50.3736 110.672 50.6908 110.433 51.0489 110.274C51.407 110.115 51.7965 110.038 52.1883 110.051C52.9689 110.027 53.74 110.201 54.5206 110.239C56.3271 110.322 58.0939 109.692 59.4407 108.485C60.2069 107.782 60.8334 106.818 60.7756 105.782C60.6641 105.158 60.5194 104.54 60.3419 103.931C60.0286 102.134 61.2237 100.433 62.52 99.1462C63.8163 97.8595 65.3294 96.6741 65.9655 94.9634C66.751 92.8479 65.9655 90.4818 66.1968 88.2169C66.5823 84.169 70.0519 81.0657 73.4926 79.3791C74.2974 78.9839 75.6081 77.9816 74.7118 76.9696C74.4853 76.7094 74.1432 76.5793 73.907 76.3239C73.189 75.5432 73.907 74.2614 73.642 73.2301C73.5921 73.0273 73.5038 72.8359 73.3818 72.6663C73.8034 72.7066 74.2045 72.8675 74.537 73.1299C74.8695 73.3923 75.1192 73.745 75.2563 74.1457C75.5117 75.177 74.8034 76.4588 75.5214 77.2395C75.7527 77.4949 76.0996 77.625 76.3261 77.8852C77.2224 78.9068 75.9117 79.9091 75.1021 80.2946C71.647 81.9861 68.1967 85.0846 67.8111 89.1325C67.5991 91.3781 68.3653 93.7442 67.575 95.879C66.9437 97.5897 65.4258 98.7703 64.1295 100.062C62.8332 101.353 61.643 103.049 61.9562 104.847C62.1332 105.456 62.2779 106.073 62.3899 106.697C62.4477 107.733 61.8213 108.697 61.0551 109.401C59.7133 110.619 57.9452 111.258 56.135 111.179C55.3543 111.14 54.5833 110.967 53.7978 110.991C53.4068 110.978 53.0179 111.054 52.6606 111.214C52.3033 111.373 51.9869 111.612 51.7353 111.911C51.3209 112.499 51.2534 113.333 50.7233 113.796C50.365 114.049 49.9461 114.204 49.509 114.244C48.9885 114.34 48.3332 114.374 48.0633 113.916C47.9712 113.731 47.9312 113.525 47.9477 113.319C48.3712 113.273 48.7744 113.113 49.1138 112.856Z" fill="black"/>
<path d="M434.546 125.233C434.546 125.233 423.009 126.002 420.958 124.463C418.907 122.925 410.189 126.515 409.42 128.566C408.651 130.617 421.727 130.873 423.778 130.873C425.829 130.873 435.572 133.95 435.572 133.95L434.546 125.233Z" fill="#FBBEBE"/>
<path d="M372.386 116.686C376.38 117.72 380.099 119.617 383.282 122.243C386.464 124.868 389.033 128.159 390.807 131.884C392.582 135.609 393.519 139.677 393.553 143.802C393.586 147.928 392.716 152.011 391.003 155.764L365.298 144.038L372.386 116.686Z" fill="#6C63FF"/>
<path d="M359.232 148.413L384.937 160.14C382.705 165.034 379.122 169.188 374.61 172.116C370.097 175.043 364.843 176.622 359.465 176.667C354.086 176.711 348.807 175.22 344.247 172.367C339.687 169.515 336.036 165.42 333.722 160.564C331.409 155.709 330.53 150.293 331.188 144.955C331.846 139.617 334.014 134.577 337.438 130.429C340.861 126.28 345.398 123.195 350.514 121.536C355.63 119.876 361.114 119.712 366.32 121.061L359.232 148.413Z" fill="#6C63FF"/>
<path d="M435.842 153.962L439.931 192.752C439.931 192.752 441.212 208.136 445.058 211.469C445.058 211.469 445.058 216.34 446.34 217.879L448.135 238.133C448.135 238.133 445.571 245.569 445.827 246.851C446.084 248.132 444.802 252.235 445.058 252.747C445.315 253.26 457.365 252.747 457.365 252.747L454.801 211.469L446.853 154.038L435.842 153.962Z" fill="#3C354C"/>
<path opacity="0.1" d="M435.842 153.962L439.931 192.752C439.931 192.752 441.212 208.136 445.058 211.469C445.058 211.469 445.058 216.34 446.34 217.879L448.135 238.133C448.135 238.133 445.571 245.569 445.827 246.851C446.084 248.132 444.802 252.235 445.058 252.747C445.315 253.26 457.365 252.747 457.365 252.747L454.801 211.469L446.853 154.038L435.842 153.962Z" fill="black"/>
<path d="M436.726 66.3914C429.646 66.3914 423.906 61.9146 423.906 56.3922C423.906 50.8698 429.646 46.393 436.726 46.393C443.806 46.393 449.545 50.8698 449.545 56.3922C449.545 61.9146 443.806 66.3914 436.726 66.3914Z" fill="#3F3D56"/>
<path d="M458.304 250.651C458.304 250.651 463.681 264.21 460.876 265.846C458.07 267.483 428.614 266.314 428.614 266.314C428.614 266.314 423.705 263.275 429.315 261.171C429.315 261.171 433.991 260.937 437.03 259.067C440.069 257.196 443.576 253.69 443.576 253.69C443.576 253.69 443.81 248.547 445.68 249.715C446.239 250.084 446.716 250.566 447.078 251.129C447.44 251.693 447.681 252.326 447.784 252.988L458.304 250.651Z" fill="#3F3D56"/>
<path opacity="0.1" d="M458.304 250.651C458.304 250.651 463.681 264.21 460.876 265.846C458.07 267.483 428.614 266.314 428.614 266.314C428.614 266.314 423.705 263.275 429.315 261.171C429.315 261.171 433.991 260.937 437.03 259.067C440.069 257.196 443.576 253.69 443.576 253.69C443.576 253.69 443.81 248.547 445.68 249.715C446.239 250.084 446.716 250.566 447.078 251.129C447.44 251.693 447.681 252.326 447.784 252.988L458.304 250.651Z" fill="black"/>
<path d="M466.595 248.812C466.595 248.812 472.492 263.683 469.415 265.477C466.339 267.272 434.034 265.99 434.034 265.99C434.034 265.99 428.649 262.657 434.803 260.349C434.803 260.349 439.931 260.093 443.264 258.042C446.597 255.991 450.442 252.145 450.442 252.145C450.442 252.145 450.699 246.504 452.75 247.786C453.364 248.191 453.886 248.719 454.283 249.337C454.681 249.955 454.944 250.65 455.057 251.376L466.595 248.812Z" fill="#3F3D56"/>
<path d="M442.751 153.435C442.751 153.435 445.571 179.843 446.853 185.484C447.659 189.199 448.173 192.97 448.391 196.765C448.391 196.765 448.648 204.97 450.955 207.277C451.63 207.945 452.161 208.746 452.514 209.628C452.866 210.51 453.034 211.455 453.006 212.405C453.006 212.405 455.314 238.3 454.032 241.377C452.75 244.453 451.01 248.45 452.292 250.502C453.573 252.553 468.133 251.12 468.133 249.581C468.133 248.043 468.133 246.761 468.902 245.992C469.672 245.223 468.902 240.351 468.902 240.351C468.902 240.351 471.979 217.533 469.159 210.866C466.338 204.2 465.057 185.997 465.057 185.997C465.057 185.997 467.108 165.229 469.672 161.896C472.235 158.563 469.159 146.769 469.159 146.769L442.751 153.435Z" fill="#3C354C"/>
<path d="M449.969 71.427C449.671 72.106 448.958 72.4841 448.308 72.8419C444.544 74.9157 441.393 77.9224 438.288 80.8944C439.063 78.2694 438.898 75.4563 437.822 72.9399C437.451 72.0815 436.965 71.1589 437.23 70.2623C437.492 69.6214 437.946 69.0777 438.53 68.7068C439.797 67.7271 441.121 66.8239 442.495 66.0017C443.455 65.4274 445.429 63.8984 446.531 64.0648C446.588 65.5532 446.619 66.884 447.27 68.2752C447.425 68.6052 449.855 71.6866 449.969 71.427Z" fill="#FBBEBE"/>
<path d="M436.854 74.724C431.048 74.724 426.342 70.0176 426.342 64.2121C426.342 58.4065 431.048 53.7001 436.854 53.7001C442.659 53.7001 447.366 58.4065 447.366 64.2121C447.366 70.0176 442.659 74.724 436.854 74.724Z" fill="#FBBEBE"/>
<path d="M436.341 89.0818C436.341 89.0818 434.546 80.1082 439.674 77.0315C444.802 73.9548 450.699 70.3654 450.699 70.3654C450.699 70.3654 452.494 70.109 453.263 73.9549C453.263 73.9549 467.877 76.7751 469.415 90.6201C470.953 104.465 468.39 124.72 468.39 124.72C468.39 124.72 470.697 142.411 473.517 151.897C473.517 151.897 475.825 153.948 465.569 150.871C455.314 147.795 437.367 159.589 437.367 159.589C437.367 159.589 435.572 157.794 435.572 156.512C435.572 155.23 433.521 147.795 433.521 147.795C433.521 147.795 431.726 116.259 430.957 112.67C430.188 109.08 434.034 89.5945 436.341 89.0818Z" fill="#3F3D56"/>
<path d="M439.331 65.295C438.7 64.945 437.992 64.7563 437.27 64.7459C436.547 64.7351 435.841 64.5248 435.23 64.1382C434.237 63.3759 434.165 61.9027 433.438 60.8832C432.386 59.4071 430.288 59.2294 428.478 59.3033C427.37 59.3485 426.177 59.4146 425.244 58.8155C424.287 58.2005 423.853 57.0418 423.53 55.9505C423.148 54.6601 422.901 53.0819 423.847 52.1249C424.504 51.4602 425.541 51.3288 426.271 50.7451C427.028 50.1399 427.339 49.155 427.751 48.2777C428.219 47.2088 428.959 46.2814 429.898 45.5882C431.275 44.6316 433.033 44.4171 434.709 44.435C436.386 44.453 438.069 44.6734 439.733 44.4677C441.096 44.2991 442.455 43.8457 443.814 44.0466C445.546 44.3027 446.978 45.609 447.831 47.1373C448.684 48.6655 449.05 50.4099 449.405 52.1238L450.371 56.7852C450.67 58.2309 450.971 59.7151 450.74 61.1733C450.261 64.1963 447.587 66.5991 447.403 69.6542C447.227 68.8106 446.845 68.0237 446.291 67.3642C445.736 66.7047 445.026 66.1932 444.225 65.8756C444.024 65.7773 443.796 65.7497 443.578 65.797C443.312 65.8819 443.157 66.1473 442.989 66.3701C442.55 66.954 441.171 67.8398 440.389 67.4256C439.689 67.055 440.211 65.8916 439.331 65.295Z" fill="#3F3D56"/>
<path d="M465.826 113.182C465.826 113.182 467.621 124.463 460.185 123.438C460.185 123.438 456.339 122.925 455.827 123.438C455.314 123.951 436.341 120.618 433.777 117.797C433.777 117.797 430.701 116.772 429.162 118.31C427.624 119.848 412.241 121.387 416.856 116.772C421.471 112.157 428.649 111.131 428.649 111.131L438.392 111.644C438.392 111.644 443.52 113.182 446.597 111.644C449.673 110.106 458.391 110.618 458.391 110.618L465.826 113.182Z" fill="#FBBEBE"/>
<path d="M455.314 77.5443C455.314 77.5443 466.851 78.8262 466.851 95.4915V116.772C466.851 116.772 460.442 113.951 459.16 114.208C457.878 114.464 452.75 110.875 452.75 110.875C452.75 110.875 446.853 97.0298 447.366 93.184C447.879 89.3382 447.622 78.0571 455.314 77.5443Z" fill="#3F3D56"/>
<path d="M436.854 62.8019C431.402 62.8019 426.983 60.5061 426.983 57.6741C426.983 54.8421 431.402 52.5464 436.854 52.5464C442.306 52.5464 446.725 54.8421 446.725 57.6741C446.725 60.5061 442.306 62.8019 436.854 62.8019Z" fill="#3F3D56"/>
<path d="M446.084 67.1605C444.172 67.1605 442.623 63.3151 442.623 58.5715C442.623 53.8279 444.172 49.9825 446.084 49.9825C447.995 49.9825 449.545 53.8279 449.545 58.5715C449.545 63.3151 447.995 67.1605 446.084 67.1605Z" fill="#3F3D56"/>
<defs>
<linearGradient id="paint0_linear" x1="-19396.7" y1="145346" x2="-19396.7" y2="66357.7" gradientUnits="userSpaceOnUse">
<stop stop-color="#808080" stop-opacity="0.25"/>
<stop offset="0.54" stop-color="#808080" stop-opacity="0.12"/>
<stop offset="1" stop-color="#808080" stop-opacity="0.1"/>
</linearGradient>
</defs>
</svg>
