<svg width="146" height="42" viewBox="0 0 146 42" fill="none" xmlns="http://www.w3.org/2000/svg">
<path d="M0 41.082V2.9836L0.690852 2.29507H7.82965L8.52051 3.21311L24.4101 26.1639L24.8707 26.6229H25.3312L25.7918 26.1639V2.9836L26.2524 2.29507H33.6215L34.3123 2.9836V42H25.1009L9.21136 16.9836H8.52051L8.05994 17.4426V41.082L7.82965 42H0.690852L0 41.082Z" fill="#301481"/>
<path d="M64.9401 18.5902V17.6721H74.1514L79.9085 30.5246H80.8297L87.0473 17.6721H95.7981V18.5902L83.3628 42H77.6057L64.9401 18.5902Z" fill="#301481"/>
<path fill-rule="evenodd" clip-rule="evenodd" d="M50.8927 42C58.9052 42 65.4006 36.0402 65.4006 28.6885C65.4006 21.3368 58.9052 15.377 50.8927 15.377C42.8803 15.377 36.3849 21.3368 36.3849 28.6885C36.3849 36.0402 42.8803 42 50.8927 42ZM50.8927 35.3443C54.8354 35.3443 58.0315 32.4708 58.0315 28.9262C58.0315 25.3817 54.8354 22.5082 50.8927 22.5082C46.9501 22.5082 43.7539 25.3817 43.7539 28.9262C43.7539 32.4708 46.9501 35.3443 50.8927 35.3443Z" fill="#301481"/>
<path fill-rule="evenodd" clip-rule="evenodd" d="M122.053 34.0567C119.787 38.756 114.966 42 109.385 42C101.627 42 95.3375 35.732 95.3375 28C95.3375 20.268 101.627 14 109.385 14C117.143 14 123.432 20.268 123.432 28C123.432 28.0766 123.432 28.1532 123.43 28.2295H116.984L104.088 28.2295V29.601C104.088 31.6721 105.24 33.0492 107.082 33.9672C107.773 34.3115 110.323 34.3719 112.609 34.1967C114.284 34.0683 115.382 33.0775 116.065 31.9874L122.053 34.0567ZM104.088 23.4098V24.5574H114.912V23.4098C114.461 21.1631 112.539 20.0161 111.738 19.5381L111.688 19.5082C110.69 19.2022 109.155 18.9574 107.312 19.5082C105.47 20.059 104.319 22.3388 104.088 23.4098Z" fill="#301481"/>
<path d="M126.196 0L125.735 0.459016V42H134.025V0.459016L133.565 0H126.196Z" fill="#301481"/>
<ellipse cx="140.703" cy="36.7213" rx="5.29653" ry="5.27869" fill="#8CE46D"/>
</svg>
